<svg width="16" height="16" viewBox="0 0 16 16" fill="none" xmlns="http://www.w3.org/2000/svg">
<path fill-rule="evenodd" clip-rule="evenodd" d="M15.3406 8.17081C15.3406 7.63899 15.2929 7.12763 15.2043 6.63672H8.14062V9.53786H12.177C12.0031 10.4754 11.4747 11.2697 10.6804 11.8015V13.6833H13.1043C14.5225 12.3776 15.3406 10.4549 15.3406 8.17081Z" fill="white"/>
<path fill-rule="evenodd" clip-rule="evenodd" d="M8.13979 15.4998C10.1648 15.4998 11.8625 14.8282 13.1034 13.6828L10.6796 11.8009C10.008 12.2509 9.14888 12.5169 8.13979 12.5169C6.18637 12.5169 4.53296 11.1975 3.94319 9.4248H1.4375V11.368C2.67159 13.8191 5.20796 15.4998 8.13979 15.4998Z" fill="white"/>
<path fill-rule="evenodd" clip-rule="evenodd" d="M3.94404 9.42503C3.79404 8.97503 3.70881 8.49434 3.70881 8.00002C3.70881 7.50571 3.79404 7.02502 3.94404 6.57502V4.63184H1.43835C0.930398 5.64434 0.640625 6.78979 0.640625 8.00002C0.640625 9.21025 0.930398 10.3557 1.43835 11.3682L3.94404 9.42503Z" fill="white"/>
<path fill-rule="evenodd" clip-rule="evenodd" d="M8.13979 3.48296C9.24093 3.48296 10.2296 3.86137 11.0068 4.60455L13.158 2.45341C11.8591 1.24318 10.1614 0.5 8.13979 0.5C5.20796 0.5 2.67159 2.18069 1.4375 4.63183L3.94319 6.57501C4.53296 4.80228 6.18637 3.48296 8.13979 3.48296Z" fill="white"/>
</svg>
