<svg width="28" height="28" viewBox="0 0 28 28" fill="none" xmlns="http://www.w3.org/2000/svg">
<path d="M20.6208 16.2257C20.2859 16.0584 18.6381 15.2525 18.3313 15.1402C18.0234 15.0291 17.8001 14.9741 17.5757 15.3086C17.3535 15.642 16.7106 16.3929 16.5155 16.6152C16.3204 16.8385 16.1241 16.8655 15.7892 16.6993C15.4542 16.531 14.3737 16.1796 13.0936 15.0437C12.0977 14.1592 11.4244 13.067 11.2293 12.7325C11.0342 12.3991 11.209 12.2184 11.3759 12.0523C11.5271 11.903 11.712 11.6628 11.8789 11.4686C12.047 11.2732 12.1023 11.1341 12.215 10.9107C12.3267 10.6884 12.2714 10.4942 12.1868 10.327C12.1023 10.1597 11.4323 8.51755 11.1537 7.84967C10.8808 7.19975 10.6045 7.28843 10.3992 7.2772C10.185 7.26871 9.9707 7.26497 9.75635 7.26598C9.53304 7.26598 9.16987 7.34904 8.8631 7.68354C8.55633 8.01692 7.69015 8.82399 7.69015 10.4662C7.69015 12.1073 8.8913 13.6933 9.05822 13.9167C9.22627 14.139 11.4222 17.5087 14.7843 18.9533C15.5839 19.2968 16.2076 19.5022 16.6948 19.6548C17.4979 19.9096 18.2287 19.8737 18.805 19.7873C19.449 19.6919 20.7878 18.9802 21.0675 18.2012C21.3472 17.4222 21.3472 16.7543 21.2626 16.6152C21.1791 16.476 20.9569 16.3929 20.6208 16.2257ZM14.5057 24.5354H14.5012C12.5046 24.5356 10.5448 24.0013 8.82701 22.9886L8.41986 22.7484L4.20061 23.8507L5.32619 19.7559L5.06115 19.3361C3.94508 17.5673 3.35466 15.5204 3.35811 13.4318C3.35924 7.31425 8.36121 2.33715 14.5102 2.33715C17.4877 2.33715 20.287 3.49331 22.3916 5.59011C23.4299 6.619 24.253 7.84263 24.813 9.19019C25.3731 10.5378 25.6591 11.9825 25.6544 13.4408C25.651 19.5583 20.6502 24.5354 14.5057 24.5354ZM23.9942 3.9973C22.7516 2.75238 21.273 1.76528 19.6442 1.09321C18.0155 0.421139 16.2689 0.0774557 14.5057 0.0820772C7.11269 0.0820772 1.09566 6.07053 1.09228 13.4307C1.09228 15.7834 1.70921 18.08 2.88329 20.1038L0.979492 27.0217L8.09053 25.1651C10.057 26.2314 12.2607 26.7902 14.5001 26.7905H14.5057C21.8976 26.7905 27.9157 20.802 27.9191 13.4408C27.9246 11.6866 27.5805 9.94883 26.9068 8.32789C26.2331 6.70694 25.2431 5.23503 23.9942 3.9973Z" fill="white"/>
</svg>